<svg xmlns="http://www.w3.org/2000/svg" viewBox="0 0 1000 750"><defs><style>.cls-1{fill:#fcf2f0;}.cls-2{fill:none;stroke:#262626;stroke-linecap:round;stroke-linejoin:round;stroke-width:7px;}.cls-3{fill:#262626;}</style></defs><title>rock-paper-scissors-line-icons</title><g id="Background"><rect class="cls-1" width="1000" height="750"/></g><g id="Icons"><rect class="cls-2" x="669.96" y="226.5" width="225" height="225" rx="20"/><g id="scissor"><line class="cls-2" x1="784.28" y1="365.18" x2="795.55" y2="378.27"/><path class="cls-2" d="M782.46,327.54,735.08,267c-8.26,15.17-6.09,34.59,5.25,47.1l27.06,31.45"/><line class="cls-2" x1="811.91" y1="365.18" x2="798.82" y2="348.45"/><path class="cls-2" d="M754.64,365.18,831.47,267c8.26,15.17,6.09,34.59-5.25,47.1l-56.85,67.45"/><path class="cls-2" d="M784.09,343.91a1.64,1.64,0,1,1-1.63,1.64,1.63,1.63,0,0,1,1.63-1.64"/><circle class="cls-2" cx="746.46" cy="388.09" r="22.91"/><circle class="cls-2" cx="746.46" cy="388.09" r="9.82"/><circle class="cls-2" cx="818.46" cy="388.09" r="22.91"/><circle class="cls-2" cx="818.46" cy="388.09" r="9.82"/></g><rect class="cls-2" x="387.5" y="226.5" width="225" height="225" rx="20"/><path class="cls-2" d="M479.62,270H467.06a12.53,12.53,0,0,0-12.54,12.54V389.18"/><polyline class="cls-2" points="536.06 295.1 536.06 289.25 536.06 288.82"/><path class="cls-2" d="M479.62,270h69a12.54,12.54,0,0,1,12.54,12.54v6.71h-25.1"/><path class="cls-2" d="M548.62,270a12.55,12.55,0,0,0-12.56,12.54v6.28"/><path class="cls-2" d="M523.52,408A12.53,12.53,0,0,1,511,395.46v-6.28H442a3.15,3.15,0,0,0-3.14,3.14v3.14A12.53,12.53,0,0,0,451.38,408h72.14a12.53,12.53,0,0,0,12.54-12.54V295.1"/><rect class="cls-2" x="105.04" y="226.5" width="225" height="225" rx="20"/><path class="cls-2" d="M265.22,323.7v48a39.3,39.3,0,0,1-39.3,39.3H209.17a39.3,39.3,0,0,1-39.3-39.3V324.31"/><path class="cls-2" d="M169.87,324.34V278.92A11.92,11.92,0,0,1,181.79,267h0a11.92,11.92,0,0,1,11.91,11.92v45.42"/><path class="cls-2" d="M241.38,324.34V278.92A11.92,11.92,0,0,1,253.3,267h0a11.92,11.92,0,0,1,11.92,11.92v45.42"/><path class="cls-2" d="M193.7,336.58V314.36a11.92,11.92,0,0,1,11.92-11.92h0a11.91,11.91,0,0,1,11.92,11.92v6.12"/><path class="cls-2" d="M217.54,338.28V314.36a11.92,11.92,0,0,1,11.92-11.92h0a11.91,11.91,0,0,1,11.92,11.92v29a11.92,11.92,0,0,1-11.92,11.92h0a11.81,11.81,0,0,1-6.66-2"/><path class="cls-2" d="M169.87,350.58a14,14,0,0,1,14-14h27.55a11.92,11.92,0,0,1,11.92,11.92h0a11.91,11.91,0,0,1-11.92,11.92H192.87"/><path class="cls-2" d="M206.59,360.42a12.89,12.89,0,0,1,12.89,12.89v8.37"/></g><g id="Text"><path class="cls-3" d="M694.41,529.2V529a1.6,1.6,0,0,1,1.75-1.75h1.7a1.6,1.6,0,0,1,1.75,1.75v.65c0,2.5,1.1,3.4,2.85,3.4s2.85-.9,2.85-3.5c0-2.9-1.1-4.75-4.7-7.9-4.6-4.05-6.1-6.9-6.1-10.9,0-5.5,2.85-8.7,8.2-8.7s8,3.3,8,8.5a1.56,1.56,0,0,1-1.75,1.75h-1.7a1.56,1.56,0,0,1-1.75-1.75v-.05c0-2.5-1-3.45-2.75-3.45S700,508,700,510.35s1.15,4.4,4.75,7.55c4.6,4.05,6,6.85,6,11.2,0,5.7-2.9,8.9-8.3,8.9S694.41,534.8,694.41,529.2Z"/><path class="cls-3" d="M718.61,529.4V510.6c0-5.4,2.8-8.6,8.1-8.6s8.1,3.2,8.1,8.6v1.95a1.6,1.6,0,0,1-1.75,1.75h-1.7a1.6,1.6,0,0,1-1.75-1.75v-2.3c0-2.3-1.1-3.25-2.75-3.25s-2.75.95-2.75,3.25V529.8c0,2.3,1.1,3.2,2.75,3.2s2.75-.9,2.75-3.2v-3.6a1.6,1.6,0,0,1,1.75-1.75h1.7a1.6,1.6,0,0,1,1.75,1.75v3.2c0,5.4-2.8,8.6-8.1,8.6S718.61,534.8,718.61,529.4Z"/><path class="cls-3" d="M743.11,535.75v-31.5a1.6,1.6,0,0,1,1.75-1.75h2a1.6,1.6,0,0,1,1.75,1.75v31.5a1.6,1.6,0,0,1-1.75,1.75h-2A1.6,1.6,0,0,1,743.11,535.75Z"/><path class="cls-3" d="M756.76,529.2V529a1.6,1.6,0,0,1,1.75-1.75h1.7A1.6,1.6,0,0,1,762,529v.65c0,2.5,1.1,3.4,2.85,3.4s2.85-.9,2.85-3.5c0-2.9-1.1-4.75-4.7-7.9-4.61-4.05-6.11-6.9-6.11-10.9,0-5.5,2.86-8.7,8.21-8.7s8,3.3,8,8.5a1.56,1.56,0,0,1-1.75,1.75h-1.7a1.56,1.56,0,0,1-1.75-1.75v-.05c0-2.5-1-3.45-2.75-3.45s-2.76.95-2.76,3.35,1.16,4.4,4.76,7.55c4.6,4.05,6,6.85,6,11.2,0,5.7-2.9,8.9-8.3,8.9S756.76,534.8,756.76,529.2Z"/><path class="cls-3" d="M780.35,529.2V529a1.6,1.6,0,0,1,1.75-1.75h1.71a1.61,1.61,0,0,1,1.75,1.75v.65c0,2.5,1.09,3.4,2.84,3.4s2.86-.9,2.86-3.5c0-2.9-1.1-4.75-4.7-7.9-4.61-4.05-6.11-6.9-6.11-10.9,0-5.5,2.86-8.7,8.2-8.7s8,3.3,8,8.5a1.56,1.56,0,0,1-1.75,1.75h-1.7a1.56,1.56,0,0,1-1.75-1.75v-.05c0-2.5-1-3.45-2.75-3.45S786,508,786,510.35s1.15,4.4,4.76,7.55c4.6,4.05,6,6.85,6,11.2,0,5.7-2.9,8.9-8.3,8.9S780.35,534.8,780.35,529.2Z"/><path class="cls-3" d="M804.5,529.2V510.8c0-5.6,3-8.8,8.35-8.8s8.36,3.2,8.36,8.8v18.4c0,5.6-3,8.8-8.36,8.8S804.5,534.8,804.5,529.2Zm11.21.35v-19.1c0-2.5-1.11-3.45-2.86-3.45S810,508,810,510.45v19.1c0,2.5,1.09,3.45,2.84,3.45S815.71,532.05,815.71,529.55Z"/><path class="cls-3" d="M829.9,535.75v-31.5a1.6,1.6,0,0,1,1.75-1.75h6.41c5.7,0,8.15,2.65,8.15,8.05v2.15c0,3.6-1.15,5.9-3.61,6.9v.1c2.75.85,3.66,3.45,3.66,7.4v6.15a12.17,12.17,0,0,0,.14,2.35,2.85,2.85,0,0,1,.11.65c0,.8-.55,1.25-1.5,1.25h-2.2a1.68,1.68,0,0,1-1.91-1.5,18.89,18.89,0,0,1-.15-2.8v-6.4c0-3.25-.94-4.3-3.44-4.3H835.4v13.25a1.6,1.6,0,0,1-1.75,1.75h-2A1.6,1.6,0,0,1,829.9,535.75Zm7.5-18.25c2.05,0,3.3-.9,3.3-3.7v-2.7c0-2.5-.85-3.6-2.8-3.6h-2.5v10Z"/><path class="cls-3" d="M854.1,529.2V529a1.6,1.6,0,0,1,1.75-1.75h1.7a1.61,1.61,0,0,1,1.76,1.75v.65c0,2.5,1.09,3.4,2.84,3.4s2.86-.9,2.86-3.5c0-2.9-1.11-4.75-4.7-7.9-4.61-4.05-6.11-6.9-6.11-10.9,0-5.5,2.85-8.7,8.2-8.7s8,3.3,8,8.5a1.56,1.56,0,0,1-1.75,1.75H867a1.56,1.56,0,0,1-1.75-1.75v-.05c0-2.5-1-3.45-2.76-3.45s-2.75.95-2.75,3.35,1.15,4.4,4.76,7.55c4.6,4.05,6,6.85,6,11.2,0,5.7-2.91,8.9-8.31,8.9S854.1,534.8,854.1,529.2Z"/><path class="cls-3" d="M444.18,535.75v-31.5a1.6,1.6,0,0,1,1.75-1.75h6.35c5.5,0,8.2,3.05,8.2,8.65v3.45c0,5.6-2.7,8.65-8.2,8.65h-2.6v12.5a1.6,1.6,0,0,1-1.75,1.75h-2A1.6,1.6,0,0,1,444.18,535.75Zm8.1-17.5c1.75,0,2.7-.8,2.7-3.3V510.8c0-2.5-1-3.3-2.7-3.3h-2.6v10.75Z"/><path class="cls-3" d="M465.43,536a2.2,2.2,0,0,1,.05-.45l5.25-31.45a1.7,1.7,0,0,1,1.85-1.6h4.25a1.7,1.7,0,0,1,1.85,1.6l5.25,31.45a2.2,2.2,0,0,1,.05.45c0,1-.6,1.5-1.65,1.5h-1.95a1.71,1.71,0,0,1-1.9-1.6l-.75-5.35v.1h-6.45l-.75,5.25a1.71,1.71,0,0,1-1.9,1.6h-1.55C466,537.5,465.43,537,465.43,536Zm11.65-10.1-2.55-17.3h-.1l-2.5,17.3Z"/><path class="cls-3" d="M491.77,535.75v-31.5a1.6,1.6,0,0,1,1.75-1.75h6.36c5.5,0,8.2,3.05,8.2,8.65v3.45c0,5.6-2.7,8.65-8.2,8.65h-2.61v12.5a1.6,1.6,0,0,1-1.75,1.75h-2A1.6,1.6,0,0,1,491.77,535.75Zm8.11-17.5c1.75,0,2.7-.8,2.7-3.3V510.8c0-2.5-.95-3.3-2.7-3.3h-2.61v10.75Z"/><path class="cls-3" d="M516.07,535.75v-31.5a1.6,1.6,0,0,1,1.75-1.75h11.5a1.61,1.61,0,0,1,1.76,1.75v1.5a1.61,1.61,0,0,1-1.76,1.75h-7.75v9.25h5.8a1.6,1.6,0,0,1,1.75,1.75V520a1.6,1.6,0,0,1-1.75,1.75h-5.8V532.5h7.75a1.61,1.61,0,0,1,1.76,1.75v1.5a1.61,1.61,0,0,1-1.76,1.75h-11.5A1.6,1.6,0,0,1,516.07,535.75Z"/><path class="cls-3" d="M539.22,535.75v-31.5A1.6,1.6,0,0,1,541,502.5h6.4c5.7,0,8.15,2.65,8.15,8.05v2.15c0,3.6-1.15,5.9-3.6,6.9v.1c2.75.85,3.65,3.45,3.65,7.4v6.15a11.37,11.37,0,0,0,.15,2.35,3.44,3.44,0,0,1,.1.65c0,.8-.55,1.25-1.5,1.25h-2.2a1.67,1.67,0,0,1-1.9-1.5,17.57,17.57,0,0,1-.15-2.8v-6.4c0-3.25-1-4.3-3.45-4.3h-1.9v13.25A1.6,1.6,0,0,1,543,537.5h-2A1.6,1.6,0,0,1,539.22,535.75Zm7.5-18.25c2,0,3.3-.9,3.3-3.7v-2.7c0-2.5-.85-3.6-2.8-3.6h-2.5v10Z"/><path class="cls-3" d="M171.54,535.75v-31.5a1.6,1.6,0,0,1,1.75-1.75h6.4c5.7,0,8.15,2.65,8.15,8.05v2.15c0,3.6-1.15,5.9-3.6,6.9v.1c2.75.85,3.65,3.45,3.65,7.4v6.15a11.37,11.37,0,0,0,.15,2.35,3.44,3.44,0,0,1,.1.65c0,.8-.55,1.25-1.5,1.25h-2.2a1.67,1.67,0,0,1-1.9-1.5,17.57,17.57,0,0,1-.15-2.8v-6.4c0-3.25-.95-4.3-3.45-4.3H177v13.25a1.6,1.6,0,0,1-1.75,1.75h-2A1.6,1.6,0,0,1,171.54,535.75ZM179,517.5c2.05,0,3.3-.9,3.3-3.7v-2.7c0-2.5-.85-3.6-2.8-3.6H177v10Z"/><path class="cls-3" d="M196.29,529.2V510.8c0-5.6,3-8.8,8.35-8.8s8.35,3.2,8.35,8.8v18.4c0,5.6-3,8.8-8.35,8.8S196.29,534.8,196.29,529.2Zm11.2.35v-19.1c0-2.5-1.1-3.45-2.85-3.45s-2.85.95-2.85,3.45v19.1c0,2.5,1.1,3.45,2.85,3.45S207.49,532.05,207.49,529.55Z"/><path class="cls-3" d="M221.34,529.4V510.6c0-5.4,2.8-8.6,8.1-8.6s8.1,3.2,8.1,8.6v1.95a1.6,1.6,0,0,1-1.75,1.75h-1.7a1.6,1.6,0,0,1-1.75-1.75v-2.3c0-2.3-1.1-3.25-2.75-3.25s-2.75.95-2.75,3.25V529.8c0,2.3,1.1,3.2,2.75,3.2s2.75-.9,2.75-3.2v-3.6a1.6,1.6,0,0,1,1.75-1.75h1.7a1.6,1.6,0,0,1,1.75,1.75v3.2c0,5.4-2.8,8.6-8.1,8.6S221.34,534.8,221.34,529.4Z"/><path class="cls-3" d="M245.84,535.75v-31.5a1.6,1.6,0,0,1,1.75-1.75h2a1.6,1.6,0,0,1,1.75,1.75v13l6.55-13.45a2.1,2.1,0,0,1,2.05-1.3h1.7c1,0,1.55.45,1.55,1.15a1.89,1.89,0,0,1-.25.9l-5.65,10.8,6.15,20a2.77,2.77,0,0,1,.15.85c0,.85-.55,1.3-1.55,1.3h-2.15a2,2,0,0,1-2-1.45l-4.35-14.15-2.2,4.45v9.4a1.6,1.6,0,0,1-1.75,1.75h-2A1.6,1.6,0,0,1,245.84,535.75Z"/></g></svg>